<?xml version="1.0" standalone="no"?>
<!DOCTYPE svg PUBLIC "-//W3C//DTD SVG 20010904//EN"
 "http://www.w3.org/TR/2001/REC-SVG-20010904/DTD/svg10.dtd">
<svg version="1.0" xmlns="http://www.w3.org/2000/svg"
 width="74.000000pt" height="74.000000pt" viewBox="0 0 74.000000 74.000000"
 preserveAspectRatio="xMidYMid meet">
<metadata>
Created by potrace 1.11, written by Peter Selinger 2001-2013
</metadata>
<g transform="translate(0.000000,74.000000) scale(0.100000,-0.100000)"
fill="#000000" stroke="none">
<path d="M140 647 l0 -93 -32 1 c-42 3 -69 -11 -62 -30 5 -11 -1 -15 -20 -15
-24 0 -26 -3 -26 -49 0 -44 2 -48 23 -47 22 1 22 -1 23 -138 1 -76 6 -141 10
-145 5 -3 14 -15 20 -26 6 -11 21 -25 32 -31 12 -6 20 -13 17 -16 -7 -7 2 -8
233 -10 118 -2 216 0 218 4 3 4 11 5 19 1 8 -3 15 0 15 6 0 6 9 11 21 11 11 0
18 4 15 9 -3 5 1 11 9 15 8 3 15 12 15 20 0 8 5 16 11 18 7 2 11 51 12 140 0
109 3 138 15 143 7 3 18 3 23 -1 5 -3 9 18 9 45 0 48 -1 51 -26 51 -19 0 -25
4 -21 15 8 19 -10 29 -53 30 -32 0 -35 3 -37 33 -5 57 -5 77 -3 87 1 6 2 22 1
38 l-1 27 -230 0 -230 0 0 -93z"/>
</g>
</svg>
